<svg id="outputsvg" xmlns="http://www.w3.org/2000/svg" width="283" height="283" viewBox="0 0 2830 2830">
  <path fill="#FFA726" d="M1300 2620 c-480 -49 -887 -377 -1038 -840 -59 -178 -78 -427 -48 -606 76 -445 390 -813 814 -954 139 -46 234 -62 377 -62 254 -2 467 58 667 187 367 238 569 607 569 1040 -1 338 -126 640 -366 881 -259 260 -618 391 -975 354z m-399 -473 c20 -12 182 -186 360 -387 178 -200 341 -383 361 -406 36 -40 39 -41 144 -57 73 -12 122 -25 156 -44 62 -34 358 -340 358 -370 0 -26 -23 -46 -48 -41 -11 2 -86 67 -167 146 -81 78 -155 142 -164 142 -23 0 -41 -20 -41 -45 0 -13 52 -72 145 -165 130 -129 145 -148 143 -175 -2 -24 -8 -31 -29 -33 -22 -3 -48 20 -169 147 -143 151 -168 169 -198 139 -7 -7 -12 -19 -12 -28 0 -9 61 -81 136 -160 74 -80 142 -155 150 -167 21 -30 3 -63 -34 -63 -23 0 -59 32 -194 168 -91 92 -175 185 -186 208 -11 22 -26 78 -32 125 -6 46 -13 97 -16 112 -6 28 -85 104 -594 571 -118 109 -223 210 -232 224 -37 56 -17 124 46 163 41 25 73 24 117 -4z m1154 13 c27 0 84 -61 91 -95 13 -70 -4 -91 -239 -303 -122 -109 -239 -214 -260 -232 l-38 -33 -50 54 c-27 29 -49 60 -49 69 0 8 99 131 221 272 220 258 251 286 297 272 8 -2 20 -4 27 -4z m-715 -836 c22 -20 40 -44 40 -53 0 -9 -20 -36 -44 -60 l-43 -42 -7 -102 c-14 -225 -75 -325 -252 -413 -116 -58 -233 -57 -305 3 -127 107 -72 391 100 517 69 51 149 76 261 83 l95 6 53 48 c30 27 55 49 58 49 2 0 22 -16 44 -36z"/>
</svg>
